# xmcd CD database file
#
# Track frame offsets:
#	225
#	17701
#	32920
#	48199
#	62755
#	77304
#	87149
#	98890
#	114130
#	129895
#	143646
#	158653
#	172818
#	184734
#	197555
#	214929
#	232795
#	250565
#
# Disc length: 3509 seconds
#
# Revision: 0
# Processed by: cddbd v1.4PL0 Copyright (c) Steve Scherf et al.
# Submitted via: Feurio! 1.63 - http://www.feurio.com
#
DISCID=cf0db212
DTITLE=Various Artist - Truckin' and Singin'   CD 1/2
DYEAR=1900
DGENRE=country
TTITLE0=ANDRE LAMBERZ and HILL'S ANGELS - 18 Räder und ein Dutzend Rosen
TTITLE1=SAMMY'S SALOON - Der Traktor
TTITLE2=NANCY  WOOD - Keine Rose blüht auf dem Asphalt
TTITLE3=DAVE DUDLEY - Im Stau
TTITLE4=RUGY and HOWARD - Bleifuß und Vollgas
TTITLE5=FLORIAN HAID - Der stärkste Mann hält das nicht aus
TTITLE6=BENNY MARO - Rosalie aus Tennessee
TTITLE7=WESTERN UNION - Transit Cowboy
TTITLE8=HEIDI GEHLERT - Ich sag' Ja
TTITLE9=TENNESSEE - Tausche UFO gegen 30-Tonner Diesel
TTITLE10=BERT KENTUCKY - Banjo Fieber
TTITLE11=OLIVER FREYTAG - Mr. Trucker (aus dem Kohlenpott)
TTITLE12=SABY KENT - Wer Liebe sucht (Stand By Your Man)
TTITLE13=H.O.W. COMPANY - Frei sein
TTITLE14=GUNTER GABRIEL - Komm unter meine Decke
TTITLE15=GUDRUN LANGE and KACTUS - Immer unterwegs
TTITLE16=TUMMELTRUCK - König der Autobahn
TTITLE17=PETER HINNEN - Ich wär' so gern in Louisiana
EXTD=
EXTT0=
EXTT1=
EXTT2=
EXTT3=
EXTT4=
EXTT5=
EXTT6=
EXTT7=
EXTT8=
EXTT9=
EXTT10=
EXTT11=
EXTT12=
EXTT13=
EXTT14=
EXTT15=
EXTT16=
EXTT17=
PLAYORDER=
